# xmcd
#
# Track frame offsets: 
#        150
#        10422
#        19715
#        32045
#        40485
#        51042
#        61350
#        70582
#        80750
#        92182
#        101772
#        110915
#        121927
#        130775
#        139592
#        149307
#        159517
#        169665
#        180030
#        188585
#        201115
#        211255
#        222755
#        231362
#        240627
#        250277
#        259602
#        270167
#        280895
#        292002
#        302640
#
# Disc length: 4179 seconds
#
# Revision: 0
# Processed by: cddbd v1.5PL3 Copyright (c) Steve Scherf et al.
# Submitted via: ExactAudioCopy v0.95a4
#
DISCID=bb10511f
DTITLE=Sheb Wooley - Sheb Wooley - The Purple People Eater
DYEAR=1997
DGENRE=Country
TTITLE0=The Purple People Eater
TTITLE1=Walkin Guitar
TTITLE2=Wild And Wooley, Big Unruly Me
TTITLE3=Josie (Brown)
TTITLE4=The Birth Of Rock ´n´ Roll
TTITLE5=Honey I´m Lonesome ( The Telegraph Song)
TTITLE6=A King Or A Clown
TTITLE7=You Cand Do It
TTITLE8=Purple People Eater #2 (Ben Colder)
TTITLE9=Nyoom
TTITLE10=I Found Me An Angel
TTITLE11=Pygmy Love
TTITLE12=Mirage
TTITLE13=Do I Remember
TTITLE14=Running With The Night Crowd
TTITLE15=The Taste Of Ashes
TTITLE16=Let The Big Wind Blow
TTITLE17=Santa Claus Meets The Purple People Eater
TTITLE18=Crazy Butterfly
TTITLE19=Skin Tight, Pin Stripped, Purple Pedal Purshers
TTITLE20=The Who Who Wallidinks
TTITLE21=Star Of Love
TTITLE22=Never Look Down
TTITLE23=Reach For The Moon
TTITLE24=Sixteen Violins
TTITLE25=Monkey Jive
TTITLE26=The Chase
TTITLE27=Luke The Spook
TTITLE28=I CAn´t Believe You´re Mine
TTITLE29=Google Eye
TTITLE30=Are You Satisfied
EXTD=
EXTT0=
EXTT1=
EXTT2=
EXTT3=
EXTT4=
EXTT5=
EXTT6=
EXTT7=
EXTT8=
EXTT9=
EXTT10=
EXTT11=
EXTT12=
EXTT13=
EXTT14=
EXTT15=
EXTT16=
EXTT17=
EXTT18=
EXTT19=
EXTT20=
EXTT21=
EXTT22=
EXTT23=
EXTT24=
EXTT25=
EXTT26=
EXTT27=
EXTT28=
EXTT29=
EXTT30=
PLAYORDER=
